<?xml version="1.0" standalone="no"?>
<!DOCTYPE svg PUBLIC "-//W3C//DTD SVG 20010904//EN"
 "http://www.w3.org/TR/2001/REC-SVG-20010904/DTD/svg10.dtd">
<svg version="1.0" xmlns="http://www.w3.org/2000/svg"
 width="1024.000000pt" height="1024.000000pt" viewBox="0 0 1024.000000 1024.000000"
 preserveAspectRatio="xMidYMid meet" >
<rect width="100%" height="100%" fill="white"/>

<g transform="translate(0.000000,1024.000000) scale(0.100000,-0.100000)"
fill="#000000" stroke="none">
<path d="M4910 9164 c-25 -2 -101 -8 -170 -14 -651 -53 -1267 -264 -1727 -591
-310 -220 -594 -516 -783 -819 -90 -144 -111 -180 -182 -322 -181 -364 -304
-766 -364 -1193 -25 -181 -31 -595 -10 -755 63 -478 233 -846 539 -1166 255
-267 619 -480 1011 -590 l98 -28 -6 -41 c-3 -22 -8 -178 -12 -346 -9 -402 7
-582 73 -818 15 -54 22 -96 17 -98 -89 -30 -310 -228 -373 -336 -123 -209
-118 -439 13 -633 46 -69 154 -169 235 -218 161 -97 278 -121 556 -113 212 6
384 35 587 100 l106 34 129 -43 c293 -98 639 -126 1073 -89 475 41 793 146
993 326 78 70 203 223 245 299 61 111 77 179 77 340 0 121 -4 158 -23 224 -31
107 -74 205 -132 302 l-49 81 -1 524 c-1 288 -2 531 -1 539 1 10 25 22 69 35
210 59 513 217 722 375 118 90 158 124 274 238 510 502 752 1153 706 1897 -44
701 -296 1293 -778 1828 -158 176 -410 399 -615 545 -377 268 -856 432 -1487
508 -128 15 -694 28 -810 18z m747 -319 c551 -58 987 -197 1324 -421 227 -151
525 -419 695 -624 434 -524 639 -1110 621 -1770 -3 -107 -13 -239 -21 -292
-76 -481 -298 -886 -671 -1226 -220 -201 -535 -386 -785 -462 -175 -53 -188
-59 -224 -103 -72 -88 -71 -80 -71 -768 l0 -615 60 -90 c131 -197 179 -378
139 -529 -20 -79 -46 -122 -142 -231 -91 -104 -162 -153 -297 -207 -315 -125
-973 -172 -1348 -96 -169 34 -251 64 -287 106 -115 131 -69 316 131 528 l81
85 34 -30 c113 -99 296 -134 469 -90 149 38 257 101 468 269 270 217 418 421
482 666 23 88 22 217 -2 258 -61 104 -212 103 -265 -3 -10 -20 -18 -57 -18
-85 0 -107 -57 -251 -144 -364 -96 -124 -355 -339 -491 -407 -164 -81 -306
-61 -335 46 -27 99 45 206 234 345 104 78 184 175 251 310 64 127 90 222 107
387 15 144 1 319 -28 369 -31 53 -68 74 -129 74 -57 0 -91 -18 -129 -68 -18
-24 -19 -44 -21 -234 -1 -189 -3 -214 -24 -278 -54 -161 -108 -238 -245 -343
-191 -148 -292 -290 -319 -448 l-12 -71 -108 -103 c-169 -161 -275 -315 -329
-475 -29 -89 -32 -264 -5 -334 10 -24 15 -46 12 -49 -2 -2 -57 -18 -122 -33
-180 -44 -336 -62 -483 -56 -180 9 -274 45 -374 144 -101 100 -126 217 -70
331 39 80 160 199 245 241 l66 32 50 -31 c60 -37 126 -56 253 -70 166 -20 290
16 369 106 58 66 75 125 68 243 -7 130 -47 242 -148 418 -62 107 -75 137 -101
238 -19 70 -22 110 -23 320 0 253 -2 260 -49 304 -39 37 -128 41 -176 9 -54
-36 -69 -77 -81 -226 -23 -274 32 -573 137 -744 81 -132 144 -284 144 -346 l0
-25 -93 6 c-51 3 -110 12 -130 20 -162 68 -236 636 -171 1316 13 142 13 164 0
193 -31 68 -63 89 -171 108 -173 31 -448 133 -612 228 -260 148 -471 345 -613
572 -249 397 -324 885 -230 1500 39 251 99 475 197 730 150 391 351 713 618
989 477 493 1109 774 1925 856 186 19 737 18 917 0z"/>
<path d="M3215 7166 c-107 -46 -167 -196 -169 -416 -2 -204 33 -258 172 -268
63 -4 69 -2 94 23 39 39 56 134 63 357 7 212 0 253 -46 292 -34 29 -68 32
-114 12z"/>
<path d="M6135 7136 c-40 -17 -82 -67 -95 -114 -13 -48 -13 -269 1 -352 17
-107 79 -190 140 -190 42 0 107 63 140 136 42 92 54 177 40 286 -18 135 -66
216 -142 238 -42 12 -47 12 -84 -4z"/>
<path d="M3972 6184 c-73 -37 -96 -114 -68 -225 68 -266 254 -413 521 -413
124 1 202 20 320 79 152 77 397 295 425 379 38 116 -81 229 -196 186 -15 -6
-75 -57 -133 -113 -168 -162 -263 -216 -394 -225 -158 -10 -208 34 -262 230
-12 44 -24 63 -51 84 -44 34 -115 42 -162 18z"/>
</g>
</svg>
